<svg xmlns="http://www.w3.org/2000/svg" id="Layer_2" data-name="Layer 2" viewBox="0 0 1547.28 300"><defs><style>      .cls-1 {        fill: #fff;      }      .cls-2 {        fill: #00b3d1;      }      .cls-3 {        fill: #f15b55;      }    </style></defs><g id="BrandMarks"><g id="Primary_Reverse"><g><path class="cls-1" d="M871.9,98.36V28.27h30.44c4.41,0,8.24.77,11.51,2.3,3.27,1.54,5.81,3.7,7.61,6.51,1.8,2.8,2.7,6.11,2.7,9.91v1.2c0,4.2-1,7.61-3,10.21-2,2.6-4.47,4.51-7.41,5.71v1.8c2.67.13,4.74,1.05,6.21,2.75,1.47,1.7,2.2,3.95,2.2,6.76v22.93h-13.22v-21.03c0-1.6-.42-2.9-1.25-3.9-.84-1-2.22-1.5-4.15-1.5h-18.42v26.43h-13.22ZM885.12,59.91h15.82c3.14,0,5.59-.85,7.36-2.55,1.77-1.7,2.65-3.95,2.65-6.76v-1c0-2.8-.87-5.06-2.6-6.76-1.74-1.7-4.21-2.55-7.41-2.55h-15.82v19.62Z"></path><path class="cls-1" d="M960.7,99.76c-8.81,0-15.82-2.42-21.03-7.26-5.21-4.84-7.81-11.76-7.81-20.78v-16.82c0-9.01,2.6-15.93,7.81-20.78,5.21-4.84,12.21-7.26,21.03-7.26s15.82,2.42,21.02,7.26c5.21,4.84,7.81,11.76,7.81,20.78v16.82c0,9.01-2.6,15.94-7.81,20.78-5.21,4.84-12.21,7.26-21.02,7.26ZM960.7,87.94c4.94,0,8.78-1.43,11.51-4.31,2.74-2.87,4.1-6.71,4.1-11.51v-17.62c0-4.81-1.37-8.64-4.1-11.51-2.74-2.87-6.58-4.31-11.51-4.31s-8.7,1.44-11.46,4.31c-2.77,2.87-4.15,6.71-4.15,11.51v17.62c0,4.81,1.38,8.64,4.15,11.51,2.77,2.87,6.59,4.31,11.46,4.31Z"></path><path class="cls-1" d="M1025.89,99.76c-5.74,0-10.66-1.05-14.77-3.15-4.11-2.1-7.24-5.11-9.41-9.01-2.17-3.9-3.25-8.53-3.25-13.87V28.27h13.22v45.86c0,4.27,1.22,7.64,3.65,10.11,2.44,2.47,5.96,3.7,10.56,3.7s8.13-1.23,10.56-3.7c2.44-2.47,3.65-5.84,3.65-10.11V28.27h13.22v45.46c0,5.34-1.09,9.96-3.25,13.87-2.17,3.9-5.31,6.91-9.41,9.01-4.1,2.1-9.03,3.15-14.77,3.15Z"></path><path class="cls-1" d="M1064.01,98.36V28.27h25.13l13.92,61.07h1.8V28.27h13.02v70.08h-25.13l-13.92-61.07h-1.8v61.07h-13.02Z"></path><path class="cls-1" d="M1126.44,98.36v-11.61h9.21v-46.86h-9.21v-11.61h28.83c9.41,0,16.57,2.39,21.48,7.16,4.91,4.77,7.36,11.86,7.36,21.28v13.22c0,9.41-2.45,16.5-7.36,21.28-4.91,4.77-12.06,7.16-21.48,7.16h-28.83ZM1148.87,86.34h6.61c5.34,0,9.24-1.4,11.71-4.2,2.47-2.8,3.7-6.74,3.7-11.81v-14.02c0-5.14-1.24-9.09-3.7-11.86-2.47-2.77-6.38-4.15-11.71-4.15h-6.61v46.06Z"></path><path class="cls-1" d="M1193.1,98.36V28.27h45.05v12.01h-31.84v16.72h29.03v12.01h-29.03v17.32h32.44v12.01h-45.65Z"></path><path class="cls-1" d="M1245.73,98.36v-11.61h9.21v-46.86h-9.21v-11.61h28.83c9.41,0,16.57,2.39,21.48,7.16,4.91,4.77,7.36,11.86,7.36,21.28v13.22c0,9.41-2.45,16.5-7.36,21.28-4.91,4.77-12.06,7.16-21.48,7.16h-28.83ZM1268.16,86.34h6.61c5.34,0,9.24-1.4,11.71-4.2,2.47-2.8,3.7-6.74,3.7-11.81v-14.02c0-5.14-1.24-9.09-3.7-11.86-2.47-2.77-6.38-4.15-11.71-4.15h-6.61v46.06Z"></path><path class="cls-1" d="M871.9,198.48v-70.08h28.83c4.41,0,8.29.89,11.66,2.65,3.37,1.77,6.01,4.26,7.91,7.46,1.9,3.2,2.85,7.01,2.85,11.41v1.4c0,4.34-.99,8.13-2.95,11.36-1.97,3.24-4.64,5.74-8.01,7.51-3.37,1.77-7.19,2.65-11.46,2.65h-15.62v25.63h-13.22ZM885.12,160.83h14.32c3.14,0,5.67-.87,7.61-2.6,1.94-1.73,2.9-4.11,2.9-7.11v-1c0-3-.97-5.37-2.9-7.11-1.94-1.73-4.47-2.6-7.61-2.6h-14.32v20.42Z"></path><path class="cls-1" d="M930.77,198.48v-70.08h30.44c4.41,0,8.24.77,11.51,2.3,3.27,1.54,5.81,3.7,7.61,6.51,1.8,2.8,2.7,6.11,2.7,9.91v1.2c0,4.2-1,7.61-3,10.21-2,2.6-4.47,4.51-7.41,5.71v1.8c2.67.13,4.74,1.05,6.21,2.75,1.47,1.7,2.2,3.95,2.2,6.76v22.93h-13.22v-21.03c0-1.6-.42-2.9-1.25-3.9-.84-1-2.22-1.5-4.15-1.5h-18.42v26.43h-13.22ZM943.99,160.03h15.82c3.14,0,5.59-.85,7.36-2.55,1.77-1.7,2.65-3.95,2.65-6.76v-1c0-2.8-.87-5.06-2.6-6.76-1.74-1.7-4.21-2.55-7.41-2.55h-15.82v19.62Z"></path><path class="cls-1" d="M1019.57,199.88c-8.81,0-15.82-2.42-21.03-7.26-5.21-4.84-7.81-11.76-7.81-20.78v-16.82c0-9.01,2.6-15.93,7.81-20.78,5.21-4.84,12.21-7.26,21.03-7.26s15.82,2.42,21.02,7.26c5.21,4.84,7.81,11.76,7.81,20.78v16.82c0,9.01-2.6,15.94-7.81,20.78-5.21,4.84-12.21,7.26-21.02,7.26ZM1019.57,188.06c4.94,0,8.78-1.43,11.51-4.31,2.74-2.87,4.1-6.71,4.1-11.51v-17.62c0-4.81-1.37-8.64-4.1-11.51-2.74-2.87-6.58-4.31-11.51-4.31s-8.7,1.44-11.46,4.31c-2.77,2.87-4.15,6.71-4.15,11.51v17.62c0,4.81,1.38,8.64,4.15,11.51,2.77,2.87,6.59,4.31,11.46,4.31Z"></path><path class="cls-1" d="M1057.96,198.48v-70.08h44.05v12.01h-30.84v16.92h28.43v12.01h-28.43v29.14h-13.22Z"></path><path class="cls-1" d="M1109.77,198.48v-70.08h45.05v12.01h-31.84v16.72h29.03v12.01h-29.03v17.32h32.44v12.01h-45.65Z"></path><path class="cls-1" d="M1188.41,199.88c-5.41,0-10.18-.97-14.32-2.9-4.14-1.94-7.38-4.71-9.71-8.31-2.34-3.6-3.5-7.94-3.5-13.02v-2.8h13.02v2.8c0,4.2,1.3,7.36,3.9,9.46,2.6,2.1,6.14,3.15,10.61,3.15s7.93-.9,10.16-2.7c2.24-1.8,3.35-4.11,3.35-6.91,0-1.94-.55-3.5-1.65-4.71-1.1-1.2-2.7-2.19-4.81-2.95-2.1-.77-4.66-1.48-7.66-2.15l-2.3-.5c-4.81-1.07-8.93-2.42-12.36-4.05-3.44-1.64-6.07-3.79-7.91-6.46-1.84-2.67-2.75-6.14-2.75-10.41s1.02-7.93,3.05-10.96c2.03-3.04,4.91-5.37,8.61-7.01,3.7-1.63,8.06-2.45,13.07-2.45s9.46.85,13.37,2.55,6.97,4.24,9.21,7.61c2.24,3.37,3.35,7.59,3.35,12.67v3h-13.02v-3c0-2.67-.52-4.82-1.55-6.46-1.04-1.64-2.52-2.84-4.46-3.6-1.94-.77-4.24-1.15-6.91-1.15-4,0-6.96.75-8.86,2.25-1.9,1.5-2.85,3.55-2.85,6.16,0,1.74.45,3.2,1.35,4.41.9,1.2,2.25,2.2,4.06,3,1.8.8,4.1,1.5,6.91,2.1l2.3.5c5.01,1.07,9.36,2.44,13.07,4.11,3.7,1.67,6.59,3.87,8.66,6.61,2.07,2.74,3.1,6.24,3.1,10.51s-1.09,8.03-3.25,11.26c-2.17,3.24-5.24,5.77-9.21,7.61-3.97,1.83-8.66,2.75-14.07,2.75Z"></path><path class="cls-1" d="M1248.91,199.88c-5.41,0-10.18-.97-14.32-2.9-4.14-1.94-7.38-4.71-9.71-8.31-2.34-3.6-3.5-7.94-3.5-13.02v-2.8h13.02v2.8c0,4.2,1.3,7.36,3.9,9.46,2.6,2.1,6.14,3.15,10.61,3.15s7.93-.9,10.16-2.7c2.24-1.8,3.35-4.11,3.35-6.91,0-1.94-.55-3.5-1.65-4.71-1.1-1.2-2.7-2.19-4.81-2.95-2.1-.77-4.66-1.48-7.66-2.15l-2.3-.5c-4.81-1.07-8.93-2.42-12.36-4.05-3.44-1.64-6.07-3.79-7.91-6.46-1.84-2.67-2.75-6.14-2.75-10.41s1.02-7.93,3.05-10.96c2.03-3.04,4.91-5.37,8.61-7.01,3.7-1.63,8.06-2.45,13.07-2.45s9.46.85,13.37,2.55c3.9,1.7,6.97,4.24,9.21,7.61,2.24,3.37,3.35,7.59,3.35,12.67v3h-13.02v-3c0-2.67-.52-4.82-1.55-6.46-1.04-1.64-2.52-2.84-4.46-3.6-1.94-.77-4.24-1.15-6.91-1.15-4,0-6.96.75-8.86,2.25-1.9,1.5-2.85,3.55-2.85,6.16,0,1.74.45,3.2,1.35,4.41.9,1.2,2.25,2.2,4.06,3,1.8.8,4.1,1.5,6.91,2.1l2.3.5c5.01,1.07,9.36,2.44,13.07,4.11,3.7,1.67,6.59,3.87,8.66,6.61,2.07,2.74,3.1,6.24,3.1,10.51s-1.09,8.03-3.25,11.26c-2.17,3.24-5.24,5.77-9.21,7.61-3.97,1.83-8.66,2.75-14.07,2.75Z"></path><path class="cls-1" d="M1283.45,198.48v-70.08h13.22v70.08h-13.22Z"></path><path class="cls-1" d="M1335.23,199.88c-8.81,0-15.82-2.42-21.03-7.26-5.21-4.84-7.81-11.76-7.81-20.78v-16.82c0-9.01,2.6-15.93,7.81-20.78,5.21-4.84,12.21-7.26,21.03-7.26s15.82,2.42,21.02,7.26c5.21,4.84,7.81,11.76,7.81,20.78v16.82c0,9.01-2.6,15.94-7.81,20.78-5.21,4.84-12.21,7.26-21.02,7.26ZM1335.23,188.06c4.94,0,8.78-1.43,11.51-4.31,2.74-2.87,4.1-6.71,4.1-11.51v-17.62c0-4.81-1.37-8.64-4.1-11.51-2.74-2.87-6.58-4.31-11.51-4.31s-8.7,1.44-11.46,4.31c-2.77,2.87-4.15,6.71-4.15,11.51v17.62c0,4.81,1.38,8.64,4.15,11.51,2.77,2.87,6.59,4.31,11.46,4.31Z"></path><path class="cls-1" d="M1373.62,198.48v-70.08h25.13l13.92,61.07h1.8v-61.07h13.02v70.08h-25.13l-13.92-61.07h-1.8v61.07h-13.02Z"></path><path class="cls-1" d="M1434.84,198.48l18.42-70.08h23.03l18.42,70.08h-13.62l-3.81-15.42h-25.03l-3.8,15.42h-13.62ZM1455.37,170.84h18.82l-8.51-34.14h-1.8l-8.51,34.14Z"></path><path class="cls-1" d="M1502.02,198.48v-70.08h13.22v58.07h32.04v12.01h-45.25Z"></path><path class="cls-1" d="M871.9,298.6v-70.08h28.83c4.41,0,8.29.89,11.66,2.65,3.37,1.77,6.01,4.26,7.91,7.46,1.9,3.2,2.85,7.01,2.85,11.41v1.4c0,4.34-.99,8.13-2.95,11.36-1.97,3.24-4.64,5.74-8.01,7.51-3.37,1.77-7.19,2.65-11.46,2.65h-15.62v25.63h-13.22ZM885.12,260.95h14.32c3.14,0,5.67-.87,7.61-2.6,1.94-1.73,2.9-4.11,2.9-7.11v-1c0-3-.97-5.37-2.9-7.11-1.94-1.73-4.47-2.6-7.61-2.6h-14.32v20.42Z"></path><path class="cls-1" d="M930.77,298.6v-70.08h30.44c4.41,0,8.24.77,11.51,2.3,3.27,1.54,5.81,3.7,7.61,6.51,1.8,2.8,2.7,6.11,2.7,9.91v1.2c0,4.2-1,7.61-3,10.21-2,2.6-4.47,4.51-7.41,5.71v1.8c2.67.13,4.74,1.05,6.21,2.75,1.47,1.7,2.2,3.95,2.2,6.76v22.93h-13.22v-21.03c0-1.6-.42-2.9-1.25-3.9-.84-1-2.22-1.5-4.15-1.5h-18.42v26.43h-13.22ZM943.99,260.15h15.82c3.14,0,5.59-.85,7.36-2.55,1.77-1.7,2.65-3.95,2.65-6.76v-1c0-2.8-.87-5.06-2.6-6.76-1.74-1.7-4.21-2.55-7.41-2.55h-15.82v19.62Z"></path><path class="cls-1" d="M1019.57,300c-8.81,0-15.82-2.42-21.03-7.26-5.21-4.84-7.81-11.76-7.81-20.78v-16.82c0-9.01,2.6-15.93,7.81-20.78,5.21-4.84,12.21-7.26,21.03-7.26s15.82,2.42,21.02,7.26c5.21,4.84,7.81,11.76,7.81,20.78v16.82c0,9.01-2.6,15.94-7.81,20.78-5.21,4.84-12.21,7.26-21.02,7.26ZM1019.57,288.19c4.94,0,8.78-1.43,11.51-4.31,2.74-2.87,4.1-6.71,4.1-11.51v-17.62c0-4.81-1.37-8.64-4.1-11.51-2.74-2.87-6.58-4.31-11.51-4.31s-8.7,1.44-11.46,4.31c-2.77,2.87-4.15,6.71-4.15,11.51v17.62c0,4.81,1.38,8.64,4.15,11.51,2.77,2.87,6.59,4.31,11.46,4.31Z"></path><path class="cls-1" d="M1082.27,300c-4.81,0-9.16-1.09-13.07-3.25-3.9-2.17-7.01-5.34-9.31-9.51-2.3-4.17-3.45-9.26-3.45-15.27v-16.82c0-9.01,2.54-15.93,7.61-20.78,5.07-4.84,11.95-7.26,20.63-7.26s15.27,2.29,19.97,6.86c4.71,4.57,7.06,10.76,7.06,18.57v.4h-13.02v-.8c0-2.47-.52-4.71-1.55-6.71-1.04-2-2.59-3.59-4.66-4.76-2.07-1.17-4.67-1.75-7.81-1.75-4.67,0-8.34,1.44-11.01,4.31-2.67,2.87-4,6.78-4,11.71v17.22c0,4.87,1.34,8.79,4,11.76,2.67,2.97,6.41,4.46,11.21,4.46s8.31-1.27,10.51-3.8c2.2-2.54,3.3-5.74,3.3-9.61v-1h-16.62v-11.21h29.64v35.84h-12.21v-6.71h-1.8c-.47,1.14-1.22,2.34-2.25,3.6-1.04,1.27-2.59,2.34-4.66,3.2-2.07.87-4.91,1.3-8.51,1.3Z"></path><path class="cls-1" d="M1122.23,298.6v-70.08h30.44c4.41,0,8.24.77,11.51,2.3,3.27,1.54,5.81,3.7,7.61,6.51,1.8,2.8,2.7,6.11,2.7,9.91v1.2c0,4.2-1,7.61-3,10.21-2,2.6-4.47,4.51-7.41,5.71v1.8c2.67.13,4.74,1.05,6.21,2.75,1.47,1.7,2.2,3.95,2.2,6.76v22.93h-13.22v-21.03c0-1.6-.42-2.9-1.25-3.9-.84-1-2.22-1.5-4.15-1.5h-18.42v26.43h-13.22ZM1135.44,260.15h15.82c3.14,0,5.59-.85,7.36-2.55,1.77-1.7,2.65-3.95,2.65-6.76v-1c0-2.8-.87-5.06-2.6-6.76-1.74-1.7-4.21-2.55-7.41-2.55h-15.82v19.62Z"></path><path class="cls-1" d="M1179.7,298.6l18.42-70.08h23.03l18.42,70.08h-13.62l-3.81-15.42h-25.03l-3.8,15.42h-13.62ZM1200.23,270.96h18.82l-8.51-34.14h-1.8l-8.51,34.14Z"></path><path class="cls-1" d="M1246.89,298.6v-70.08h24.53l12.11,61.07h1.8l12.11-61.07h24.53v70.08h-12.82v-60.37h-1.8l-12.01,60.37h-21.83l-12.02-60.37h-1.8v60.37h-12.82Z"></path></g><g><rect class="cls-1" x="535.96" y="67.94" width="47.13" height="47.11"></rect><path class="cls-1" d="M780.43,112.05c0,30.81-16.58,59.22-43.41,74.37-50.26,28.4-201.06,113.58-201.06,113.58v-60.87s131.78-70.51,175.69-94.03c36.82-19.71,23.6-77.16-19.35-77.16h-109.23V26.62h111.93c47.18,0,85.42,38.24,85.42,85.42Z"></path><rect class="cls-1" x="733.32" y="252.88" width="47.12" height="47.12"></rect><path class="cls-1" d="M429.61,26.62h-156v273.38h47.13v-52.38s107.61-48.03,143.49-64.03c30.81-13.75,49.04-44.18,48.59-76.08-.63-45.05-38.15-80.89-83.2-80.89ZM441.82,143.82c-30.27,13.05-121.09,52.2-121.09,52.2V67.93h105.43c42.96,0,54.67,59.07,15.66,75.88Z"></path><path class="cls-1" d="M0,239.12s131.78-70.52,175.7-94.02c36.82-19.7,23.6-77.17-19.35-77.17-27.31,0-109.23,0-109.23,0V26.63s83.95,0,111.94,0c47.18,0,85.42,38.24,85.42,85.42,0,30.81-16.59,59.22-43.41,74.38C150.8,214.82,0,300,0,300v-60.88Z"></path><polygon class="cls-3" points="197.36 300 244.48 300 244.48 252.88 122.24 183.97 197.36 300"></polygon><polygon class="cls-2" points="0 115.05 122.24 183.97 47.12 67.93 0 67.93 0 115.05"></polygon><g><path class="cls-1" d="M780.58,26.63V4.56h-7.76V0h20.54v4.56h-7.76v22.06h-5.02Z"></path><path class="cls-1" d="M796.26,26.63V0h9.32l4.6,23.2h.68l4.6-23.2h9.32v26.63h-4.87V3.69h-.68l-4.56,22.94h-8.29l-4.56-22.94h-.68v22.94h-4.87Z"></path></g></g></g></g></svg>